<?xml version="1.0" encoding="UTF-8"?>
<svg version="1.1" xmlns="http://www.w3.org/2000/svg" width="169" height="70">
<path d="M0 0 C7.59 0 15.18 0 23 0 C23 1.98 23 3.96 23 6 C18.05 6 13.1 6 8 6 C8 7.65 8 9.3 8 11 C12.29 11 16.58 11 21 11 C21 12.98 21 14.96 21 17 C16.71 17 12.42 17 8 17 C8 18.98 8 20.96 8 23 C12.95 23 17.9 23 23 23 C23 24.98 23 26.96 23 29 C15.41 29 7.82 29 0 29 C0 19.43 0 9.86 0 0 Z " fill="#FFFFFF" transform="translate(3,21)"/>
<path d="M0 0 C3.11326625 1.31117601 5.45304576 2.90609152 7 6 C7 8.31 7 10.62 7 13 C1.72 13 -3.56 13 -9 13 C-8.01 14.485 -8.01 14.485 -7 16 C-3.58357241 16.25015873 -3.58357241 16.25015873 0 16 C1.32 16 2.64 16 4 16 C4.66 17.32 5.32 18.64 6 20 C1.92026011 23.26379192 -1.6008564 23.45342669 -6.62890625 23.2890625 C-10.70142824 22.79257712 -12.85156744 21.02962919 -15.8125 18.375 C-17.68587786 14.62824429 -17.77902557 11.09342525 -17 7 C-12.96533648 -0.20262154 -7.65857602 -0.87962205 0 0 Z M-8 6 C-8.99 7.485 -8.99 7.485 -10 9 C-6.7 9 -3.4 9 0 9 C0 8.34 0 7.68 0 7 C-2.78863007 5.60568496 -4.92078868 5.74339906 -8 6 Z " fill="#FFFFFF" transform="translate(59,27)"/>
<path d="M0 0 C3.12465186 1.6748134 5.39254192 3.78508385 7 7 C7.53118173 10.79415519 7.85089348 14.46331178 5.953125 17.890625 C4.17889137 20.0405787 2.50728754 21.74635623 0 23 C-4.56933999 23.42054103 -8.68104995 23.56125534 -12.9375 21.75 C-17.7037439 17.70591427 -17.7037439 17.70591427 -18.35546875 13.953125 C-18.61764035 9.73003652 -18.37853938 6.86583174 -15.6875 3.5 C-11.14062561 -0.72965059 -5.96711322 -0.85244475 0 0 Z M-9.875 7.6875 C-11.30124388 10.61922354 -11.04230389 11.95326554 -10 15 C-9.34 15.66 -8.68 16.32 -8 17 C-4.40320934 16.67673447 -4.40320934 16.67673447 -1 16 C0.17008745 11.38990512 0.17008745 11.38990512 -1.125 7.0625 C-4.50224105 5.14873007 -6.94637531 5.05173778 -9.875 7.6875 Z " fill="#FFFFFF" transform="translate(147,27)"/>
<path d="M0 0 C3.125 1.8125 3.125 1.8125 5 4 C5 4.99 5 5.98 5 7 C3.02 7.66 1.04 8.32 -1 9 C-1 8.34 -1 7.68 -1 7 C-4.41642759 6.74984127 -4.41642759 6.74984127 -8 7 C-10.31543207 9.76988076 -10.31543207 9.76988076 -9.6875 12.625 C-9.2258486 14.93501965 -9.2258486 14.93501965 -8 16 C-5.66702567 16.04092937 -3.33294775 16.04241723 -1 16 C-1 15.34 -1 14.68 -1 14 C0.65 14.66 2.3 15.32 4 16 C4 20 4 20 2.30859375 21.7265625 C-1.65063344 23.91050169 -5.60228035 23.52829749 -10 23 C-13.68137204 21.43345871 -16.19896612 19.60206776 -18 16 C-18.66786547 12.15426919 -18.87752866 8.62057017 -16.98046875 5.1171875 C-12.38776824 -0.62715695 -6.89799106 -0.8128206 0 0 Z " fill="#FFFFFF" transform="translate(86,27)"/>
<path d="M0 0 C2.64 0 5.28 0 8 0 C8 1.65 8 3.3 8 5 C9.65 5 11.3 5 13 5 C13 6.98 13 8.96 13 11 C11.35 11 9.7 11 8 11 C8 14.63 8 18.26 8 22 C9.65 22 11.3 22 13 22 C13.66 23.65 14.32 25.3 15 27 C13.43022426 28.56977574 11.85803613 28.20737081 9.6875 28.25 C6.66473395 28.21636031 5.21517606 28.11296743 2.5 26.6875 C-0.32870389 23.50520813 -0.11019638 20.36669261 -0.0625 16.3125 C-0.05347656 15.31863281 -0.04445313 14.32476562 -0.03515625 13.30078125 C-0.02355469 12.54152344 -0.01195313 11.78226563 0 11 C-0.99 11 -1.98 11 -3 11 C-3 9.02 -3 7.04 -3 5 C-2.01 5 -1.02 5 0 5 C0 3.35 0 1.7 0 0 Z " fill="#FFFFFF" transform="translate(95,22)"/>
<path d="M0 0 C2.31 0 4.62 0 7 0 C7 10.23 7 20.46 7 31 C4.69 31 2.38 31 0 31 C0 20.77 0 10.54 0 0 Z " fill="#FFFFFF" transform="translate(31,19)"/>
<path d="M0 0 C4.62 0 9.24 0 14 0 C14 1.98 14 3.96 14 6 C13.195625 6.12375 12.39125 6.2475 11.5625 6.375 C10.2940625 6.684375 10.2940625 6.684375 9 7 C7.5192152 9.9615696 7.64685963 12.83506295 7.4375 16.125 C7.35371094 17.40632813 7.26992187 18.68765625 7.18359375 20.0078125 C7.09271484 21.48894531 7.09271484 21.48894531 7 23 C4.69 23 2.38 23 0 23 C0 15.41 0 7.82 0 0 Z " fill="#FFFFFF" transform="translate(113,27)"/>
<path d="M0 0 C3 0.25 3 0.25 5 2.25 C5.25 5.25 5.25 5.25 5 8.25 C3 10.25 3 10.25 0 10.5 C-3 10.25 -3 10.25 -5 8.25 C-5.25 5.25 -5.25 5.25 -5 2.25 C-3 0.25 -3 0.25 0 0 Z " fill="#D90429" transform="translate(161,39.75)"/>
</svg>
